<?xml version="1.0" encoding="utf-8" ?><svg xmlns="http://www.w3.org/2000/svg" xmlns:xlink="http://www.w3.org/1999/xlink" width="1024" height="1024" viewBox="0 0 1024 1024"><path d="M411.818 197.729C421.445 196.823 436.998 197.684 447.106 197.805C464.989 197.941 482.872 197.928 500.754 197.766L571.313 197.893C588.404 197.879 606.799 197.42 623.716 198.786C664.399 202.08 703.329 216.776 736.041 241.187C777.318 272.172 806.347 316.719 818.023 366.994C821.353 381.579 821.467 391.314 823.505 405.418C806.988 406.019 785.58 404.751 770.361 405.864C766.764 356.994 752.071 322.663 714.871 289.301C660.128 240.207 569.79 226.799 516.898 286.624C487.476 319.903 488.281 355.98 489.055 397.345C489.349 413.033 488.389 429.576 489.546 445.287L440.849 445.511C441.706 428.818 441.106 410.883 441.04 394.125C440.924 375.542 440.961 359.887 442.08 341.375C430.96 339.987 410.148 341.921 399.697 344.98C376.607 351.741 366.155 364.026 355.006 383.962C339.263 384.301 316.906 382.938 301.803 385.161C312.314 333.82 361.723 293.833 413.533 291.748C427.638 291.18 441.859 291.344 455.977 291.384C462.914 274.444 474.367 260.537 486.375 247.03C468.407 246.764 450.359 247.09 432.384 246.925C423.118 246.84 413.824 246.882 404.593 247.769C368.312 251.356 334.141 266.497 307.111 290.963C283.287 312.547 265.086 340.769 257.325 372.174C254.426 383.903 253.577 394.173 252.972 406.156C236.204 406.542 218.635 405.882 201.568 406.19C201.266 357.352 221.816 309.466 253.715 272.988C284.112 237.982 324.811 213.498 369.979 203.046C384.913 199.741 396.687 198.738 411.818 197.729Z"/><path d="M201.434 617.99L252.863 617.869C254.838 659.985 269.439 694.681 298.324 725.19C328.985 757.574 369.981 775.87 414.53 776.805C429.956 777.129 445.331 776.861 460.76 776.824L527.321 776.931L582.425 776.797C594.56 776.759 608.926 777.281 620.838 776.177C657.519 772.614 691.949 756.869 718.636 731.455C750.052 701.768 770.344 661.556 771.598 618.005C787.966 617.99 805.894 617.741 822.18 618.405C822.164 632.59 819.811 648.012 816.172 661.701C814.624 668.815 811.475 677.756 808.932 684.572C797.148 716.158 779.522 742.772 755.561 766.348C715.874 805.399 666.287 825.175 610.968 827.199C599.671 827.612 590.006 827.27 578.779 827.097C567.81 827.019 556.84 826.996 545.87 827.028L427.973 827.377C414.957 827.32 398.687 826.653 385.968 824.766C339.385 817.609 296.38 795.536 263.408 761.86C226.446 724.494 201.118 671.048 201.434 617.99Z"/><path d="M440.984 579.489L489.12 579.885C488.845 614.438 488.963 648.994 489.475 683.544C502.954 683.168 519.891 683.841 534.003 683.732C533.618 672.124 533.935 658.651 533.925 646.925C533.858 624.605 533.915 602.286 534.094 579.967C549.214 579.536 568.315 579.52 583.519 579.549L583.702 647.145C583.762 658.718 584.225 672.187 583.662 683.663C621.168 685.098 650.769 675.401 668.425 639.892C674.821 639.295 686.79 639.723 693.749 639.718C703.474 639.68 713.189 639.083 722.845 637.931C715.388 670.447 698.595 692.163 671.754 711.291C635.522 735.408 605.752 732.636 564.631 732.674L489.662 732.607L442.143 732.524C428.11 732.512 415.349 732.988 401.388 730.842C384.473 728.341 368.284 722.266 353.899 713.021C325.881 694.904 308.018 669.651 300.984 637.157C318.143 640.647 337.363 638.916 354.653 639.677C365.062 662.973 387.057 680.869 413.1 683.183C422.138 683.987 431.769 683.542 440.935 683.845L440.984 579.489Z"/><path d="M590.467 391.124L689.961 391.071C726.943 390.89 759.538 401.677 785.729 427.936C834.461 476.794 836.032 547.967 786.028 596.534C742.442 638.865 697.279 632.708 642.599 632.119L590.633 632.056C590.424 616.669 590.539 597.269 591.013 581.883L657.847 581.95C674.998 582.005 699.28 583.181 715.263 579.283C726.626 576.58 737.107 571.011 745.706 563.108C759.055 550.98 767.044 534.047 767.915 516.032C768.535 497.057 761.619 478.609 748.679 464.717C739.746 455.164 728.324 448.293 715.699 444.877C699.089 440.459 676.868 443.225 659.75 442.704C636.806 442.005 613.38 443.332 590.491 442.565C590.824 429.462 591.494 403.563 590.467 391.124Z"/><path d="M330.143 391.23L399.672 390.832C408.97 390.828 425.345 391.732 433.598 391.137C433.858 406.824 432.827 427.654 433.876 442.484L369.85 442.479C350.346 442.49 323.268 441.136 305.125 446.055C293.947 449.019 283.735 454.846 275.497 462.961C261.796 476.191 254.962 492.793 254.814 511.76C254.661 529.893 261.881 547.31 274.818 560.016C284.664 569.876 297.109 576.736 310.703 579.797C327.095 583.649 350.185 582.025 367.316 581.944L432.956 581.981C434.32 583.856 433.815 626.398 433.803 632.476C432.728 632.585 431.65 632.667 430.57 632.721C424.982 633.004 417.292 632.684 411.504 632.654L375.575 632.619C324.14 632.7 284.122 636.728 241.727 598.934C218.008 577.788 203.248 549.165 201.87 517.109C200.456 486.399 211.444 456.409 232.363 433.881C260.871 403.032 289.153 392.741 330.143 391.23Z"/><path d="M326.575 487.249C347.589 486.636 371.718 487.178 392.929 487.219L511.403 487.304L631.983 487.286C654.927 487.286 678.423 486.542 701.312 487.942C705.85 488.22 708.752 489.372 712.479 492.05C718.133 496.093 721.889 502.27 722.878 509.149C723.8 515.882 721.893 522.696 717.612 527.973C712.013 534.854 705.289 536.339 697.116 537.297C694.262 537.654 685.499 537.515 682.224 537.531C670.879 537.594 659.535 537.551 648.191 537.401L555.735 537.14L407.325 537.11C388.885 537.217 370.445 537.215 352.006 537.103C340.884 537.062 329.741 537.719 318.663 536.268C315.869 535.771 312.621 533.694 310.427 532.083C299.344 523.941 297.667 506.336 306.676 496.044C312.228 489.702 318.73 488.034 326.575 487.249Z"/><path d="M598.359 291.693C599.383 291.479 604.818 291.33 606.136 291.341C627.142 291.51 650.304 298.917 667.873 310.158C697.022 328.806 714.798 353.034 722.467 386.664C720.107 386.479 717.759 386.159 715.41 385.87C699.767 383.941 684.134 384.221 668.383 384.542C665.563 376.963 659.362 368.53 653.643 362.862C638.691 348.045 621.35 341.206 600.33 341.211C592.884 342.047 585.09 346.124 583.987 354.247C582.437 365.662 583.017 377.698 583.097 389.233L583.513 445.36C569.041 444.518 549.521 445.08 534.656 445.115C534.921 425.935 535.009 406.752 534.921 387.57C534.864 376.437 533.966 356.147 536.04 346.033C538.187 335.722 542.693 326.049 549.206 317.773C562.186 301.283 578.052 294.2 598.359 291.693Z"/></svg>