<?xml version="1.0" encoding="utf-8" ?><svg xmlns="http://www.w3.org/2000/svg" xmlns:xlink="http://www.w3.org/1999/xlink" width="1024" height="1024" viewBox="0 0 1024 1024"><path fill="#31CDEE" d="M510.898 194.969C514.08 194.537 593.128 240.955 603.01 246.656L603.142 351.456C580.18 367.244 549.017 381.785 524.476 397.334L524.569 490.132C527.178 488.641 529.834 487.198 532.466 485.745C558.302 471.482 583.381 456.327 609.421 442.404C608.764 434.676 609.279 419.747 609.249 411.493C609.045 391.701 609.013 371.907 609.153 352.115C632.902 338.21 657.262 325.079 681.157 311.408C687.37 307.854 693.673 304.111 700.101 300.992C720.78 313.236 741.652 325.152 762.708 336.736C767.81 339.576 785.519 349.751 790.261 351.44C789.258 376.759 790.517 403.044 790.021 428.458C789.833 438.089 789.567 450.082 790.409 459.494C768.51 471.132 747.037 484.87 724.902 496.304C716.974 500.4 709.272 505.559 701.252 509.778C683.225 500.648 664.413 488.88 646.561 479.234C638.427 474.839 629.954 469.5 621.59 465.636L570.198 494.833C560.645 500.271 549.749 506.19 540.519 511.965C567.816 526.953 594.617 543.293 622.339 557.617C628.198 555.163 643.593 545.976 649.986 542.363L700.549 514.061C730.526 530.664 760.268 548.238 790.341 564.576C789.679 577.094 790.033 591.838 790.026 604.558L790.136 671.298C785.943 673.369 781.34 676.069 777.277 678.45C751.94 693.296 725.726 707.581 700.7 722.883C670.943 705.097 638.778 688.934 608.92 671.051L608.976 612.578C608.981 604.027 609.421 588.318 608.41 580.481C604.563 578.113 600.424 575.758 596.456 573.588C572.582 560.529 549.031 545.991 524.751 533.736C524.046 544.114 524.735 556.8 524.707 567.406C524.653 587.646 524.445 608.106 524.935 628.328C530.732 631.34 536.682 634.871 542.333 638.172C562.144 649.747 582.603 660.434 602.301 672.181C602.051 686.298 602.368 700.266 602.415 714.377L602.493 778.372C593.036 783.198 582.986 789.289 573.743 794.671L537.441 815.493C530.563 819.4 518.669 826.518 511.571 829.472C482.112 811.85 451.687 796.227 422.006 778.697C421.464 773.614 422.013 762.309 421.905 756.427C421.596 738.921 421.477 721.413 421.547 703.905C421.599 693.138 421.963 683.031 421.719 672.126C438.509 663.042 455.735 652.488 472.533 643.168C477.45 640.441 495.471 630.536 498.839 627.876C499.732 625.01 499.058 601.587 499.041 597.191L499.106 533.71C471.312 547.295 442.61 566.734 415.117 580.479C414.431 585.555 414.805 599.062 414.825 604.862L414.988 644.375C415.039 652.937 415.307 663.357 414.733 671.718C402.993 677.744 388.266 686.788 376.628 693.473L324.479 722.937C314.427 717.684 302.889 710.013 292.634 704.37C272.996 693.564 253.419 682.385 234.045 671.108C233.972 667.122 233.921 663.105 233.973 659.119C234.383 627.672 233.262 596.011 234.115 564.581C263.502 547.772 294.035 529.794 323.678 513.729C339.577 523.571 357.836 532.982 374.059 542.53C379.453 545.705 396.563 555.779 401.083 557.401C405.897 556.771 473.095 517.366 482.846 511.702L431.318 482.542C422.807 477.762 409.526 470.783 401.685 465.571C394.539 470.319 383.574 476.272 375.933 480.706C358.574 490.828 341.122 500.788 323.578 510.586C317.28 507.58 304.633 499.709 298.096 495.955L233.239 458.046C234.539 446.316 234.019 429.895 234.01 417.705L233.936 351.424C262.407 334.491 294.812 316.534 323.848 300.45L378.986 331.733C390.773 338.398 403.691 345.323 415.074 352.373C415.755 360.902 415.111 372.98 415.091 382.061L415.01 442.701C420.08 446.284 428.6 450.29 434.187 453.714C455.198 466.593 478.645 477.977 499.458 490.871L499.034 396.69C472.997 382.303 446.977 365.413 420.787 351.678C420.282 343.043 421.03 331.401 420.924 322.279C420.63 297.004 421.448 271.191 420.777 245.942C450.797 230.086 481.082 210.693 510.898 194.969ZM455.926 266.916C456.399 288.165 455.383 309.641 455.991 330.955C462.98 335.209 507.86 362.145 512.209 363.134L567.5 331.342C567.348 310.008 567.803 287.884 567.161 266.662C548.409 256.481 530.224 245.492 511.398 235.372C505.676 239.248 496.908 243.935 490.739 247.425C479.171 253.986 467.566 260.483 455.926 266.916ZM513.211 788.157C519.668 784.09 527.515 779.954 534.292 776.147C545.231 770 556.138 763.797 567.013 757.538C567.046 736.517 567.51 713.313 566.926 692.487C556.223 686.476 545.552 680.408 534.912 674.286C530.466 671.719 515.057 661.877 510.966 662.419C493.664 671.053 474.577 682.474 457.48 692.024L457.53 758.555C465.597 762.224 509.697 788.382 513.211 788.157ZM379.921 650.709C378.498 633.72 380.142 614.815 379.341 597.653C379.187 594.355 379.235 590.058 379.455 586.743C367.609 579.649 355.088 572.932 343.098 566.042C340.277 564.421 325.183 555.458 323.293 554.958C305.697 565.769 286.655 575.293 269.139 586.179C270.224 594.489 269.941 611.137 269.787 619.763C269.629 628.627 270.181 641.809 269.6 650.395C279.658 656.776 291.893 663.204 302.309 669.239C307.547 672.274 319.585 679.423 324.744 681.655C343.053 671.191 361.446 660.876 379.921 650.709ZM644.335 437.784C653.178 442.302 662.457 448.155 671.19 453.078C680.8 458.495 690.773 463.734 700.27 469.25C712.341 463.052 724.082 456.242 735.954 449.687C741.978 446.36 748.718 442.186 754.865 439.291L754.945 374.064C749.227 370.521 703.139 343.59 699.859 342.939C684.218 350.855 669.007 360.3 653.576 368.671C650.412 370.387 647.19 372.228 644.105 374.08L644.062 412.9C644.034 420.498 643.729 430.414 644.335 437.784ZM269.774 373.4L269.838 411.65C269.793 418.517 269.35 432.145 269.843 438.421L306.274 459.177C310.794 461.767 318.999 466.883 323.328 468.968C325.73 468.539 371.727 441.598 379.508 437.596L379.464 373.881C373.205 369.72 328.44 343.359 323.86 342.388C306.492 352.785 286.249 363.09 269.774 373.4ZM754.215 584.988C746.476 579.684 733.013 572.778 724.644 567.87C719.81 565.035 705.138 556.786 700.559 555.023C682.619 564.831 661.31 575.908 644.047 586.408C643.973 607.887 644.01 629.365 644.158 650.843C662.393 660.473 681.051 671.211 699.307 681.15C699.774 681.233 700.241 681.315 700.709 681.397C714.057 674.236 742.32 658.02 754.167 650.564L754.215 584.988Z"/></svg>