<?xml version="1.0" encoding="utf-8"?>
<svg version="1.1" xmlns="http://www.w3.org/2000/svg" style="display: block; filter: none;" viewBox="0 0 2048 2048" width="512" height="512" preserveAspectRatio="none" xmlns:bx="https://boxy-svg.com"><defs><linearGradient id="gradient-1" bx:pinned="true"><stop style="stop-color: rgb(10, 0, 255);" offset="0"/><stop offset="1" style="stop-color: rgb(255, 130, 18);"/></linearGradient><linearGradient id="gradient-1-1" href="#gradient-1" gradientUnits="userSpaceOnUse" x1="1040.511" y1="314.151" x2="1040.511" y2="1704.199" gradientTransform="matrix(0.668501, -0.743712, 0.757404, 0.680809, -457.025478, 1132.307581)"/><linearGradient id="gradient-1-2" href="#gradient-1" gradientUnits="userSpaceOnUse" x1="1025.027" y1="728.005" x2="1025.027" y2="1263.282" gradientTransform="matrix(0.599282, -0.800538, 0.716508, 0.536377, -110.874683, 1158.092245)"/><bx:export><bx:file format="svg" href="#object-0"/><bx:file format="png" href="#object-0"/><bx:file format="png" path="Untitled 2.png"/><bx:file format="svg" path="Untitled 2.svg"/></bx:export></defs><g style="" transform="matrix(1.500043, 0, 0, 1.47333, -514.250366, -466.541077)" id="object-0"><path d="M 871.186 371.074 C 908.161 356.486 944.169 340.138 981.353 325.504 C 1038.33 303.081 1066.81 328.46 1115.44 344.534 C 1163.94 362.916 1211.31 382.399 1259.16 402.262 L 1405.27 461.805 C 1432.88 472.935 1506.52 497.396 1522.38 522.376 C 1586.31 581.555 1574.64 662.037 1574.59 740.487 L 1574.61 1038.72 C 1574.59 1129.68 1572.93 1204.68 1536.85 1290.13 C 1470.24 1461.62 1292.06 1575.05 1139.53 1661.77 C 1067.08 1705.23 1025.35 1726.62 945.971 1682.06 C 717.11 1553.6 490.126 1415.28 476.32 1120.9 C 475.366 1100.55 475.949 1079.18 476.023 1058.74 C 474.822 1034.72 476.012 999.278 476.023 974.33 C 475.182 969.243 475.95 943.523 475.983 936.973 L 476.014 696.415 C 475.967 623.659 473.203 537.472 556.549 501.236 C 659.582 456.44 766.725 412.124 871.186 371.074 z M 1139.63 483.732 C 1037.88 448.043 1053.9 422.552 947.537 467.506 L 857.346 505.549 C 825.344 518.735 792.66 533.53 760.902 546.207 C 729.134 558.889 611.38 595.519 601.072 627.026 C 594.259 647.848 597.299 729.002 597.314 755.427 L 597.373 964.124 C 599.156 1018.73 594.302 1078.24 598.334 1131.99 C 615.533 1361.26 808.33 1477.88 991.824 1570.28 C 1005.78 1577.15 1023.54 1585.59 1038.98 1577.97 C 1190.36 1503.26 1344.79 1413.72 1419.56 1254.66 C 1453.79 1181.84 1452.21 1131.13 1452.22 1054.04 L 1452.23 740.343 C 1452.23 708.971 1452.55 677.345 1451.85 646.111 C 1450.78 598.239 1399.49 592.605 1364.49 576.117 C 1291.84 541.893 1212.66 516.827 1139.63 483.732 z" style="paint-order: stroke; fill: url(&quot;#gradient-1-1&quot;); stroke-width: 0px; stroke: rgb(10, 0, 255);"/><path d="M 933.999 894.423 L 934.227 895.676 C 943.717 944.926 994.293 936.354 1031.55 936.504 C 1045.45 935.396 1063.07 938.856 1076.63 935.192 C 1136.85 918.915 1110.67 828.385 1115.69 778.251 C 1121.97 715.372 1215.71 712.371 1231.98 771.875 C 1237.67 793.882 1235 841.683 1235 867.014 L 1235.01 1149.45 C 1235.01 1169.85 1235.51 1191.82 1234.65 1211.44 C 1232.67 1256.85 1177.41 1275.71 1139.63 1249.18 C 1113.13 1230.57 1116.43 1203.13 1116.41 1175.44 L 1116.57 1110.1 C 1116.69 1042.21 1097.53 1037.98 1035.93 1037.13 C 952.106 1035.97 931.607 1037.5 931.83 1124 L 931.964 1183.99 C 932.048 1295.42 825.787 1272.38 816.623 1218.29 C 813.962 1203.77 814.852 1188.81 814.851 1174.15 L 814.801 998.226 C 814.795 980.223 814.17 957.928 814.845 940.326 C 813.963 933.714 814.753 920.129 814.763 912.86 L 814.577 796.68 C 811.908 707.756 934.369 702.306 932.008 797.271 C 931.233 828.439 931.01 864.556 933.999 894.423 z" style="fill-rule: nonzero; paint-order: fill; fill: url(&quot;#gradient-1-2&quot;);"/></g></svg>