<svg xmlns="http://www.w3.org/2000/svg" width="1024" height="1024" viewBox="0 0 1024 1024">
  <defs>
    <linearGradient id="a">
      <stop style="stop-color:#00c6ff" offset="0"/>
      <stop style="stop-color:#0072ff" offset="1"/>
    </linearGradient>
    <linearGradient id="b" href="#a" gradientUnits="userSpaceOnUse" x1="512.535" y1="197.319" x2="512.535" y2="445.511"/>
    <linearGradient id="d" href="#a" gradientUnits="userSpaceOnUse" x1="511.806" y1="617.869" x2="511.806" y2="827.395"/>
    <linearGradient id="f" href="#a" gradientUnits="userSpaceOnUse" x1="511.914" y1="579.489" x2="511.914" y2="732.753"/>
    <linearGradient id="h" href="#a" gradientUnits="userSpaceOnUse" x1="706.687" y1="391.069" x2="706.687" y2="632.76"/>
    <linearGradient id="j" href="#a" gradientUnits="userSpaceOnUse" x1="317.826" y1="390.832" x2="317.826" y2="632.837"/>
    <linearGradient id="l" href="#a" gradientUnits="userSpaceOnUse" x1="511.993" y1="486.959" x2="511.993" y2="537.559"/>
    <linearGradient id="n" href="#a" gradientUnits="userSpaceOnUse" x1="628.561" y1="291.34" x2="628.561" y2="445.36"/>
    <linearGradient id="c" href="#a" gradientUnits="userSpaceOnUse" x1="512.535" y1="197.319" x2="512.535" y2="445.511"/>
    <linearGradient id="e" href="#a" gradientUnits="userSpaceOnUse" x1="511.806" y1="617.869" x2="511.806" y2="827.395"/>
    <linearGradient id="g" href="#a" gradientUnits="userSpaceOnUse" x1="511.914" y1="579.489" x2="511.914" y2="732.753"/>
    <linearGradient id="i" href="#a" gradientUnits="userSpaceOnUse" x1="706.687" y1="391.069" x2="706.687" y2="632.76"/>
    <linearGradient id="k" href="#a" gradientUnits="userSpaceOnUse" x1="317.826" y1="390.832" x2="317.826" y2="632.837"/>
    <linearGradient id="m" href="#a" gradientUnits="userSpaceOnUse" x1="511.993" y1="486.959" x2="511.993" y2="537.559"/>
    <linearGradient id="o" href="#a" gradientUnits="userSpaceOnUse" x1="628.561" y1="291.34" x2="628.561" y2="445.36"/>
  </defs>
  <path d="M411.818 197.729c9.627-.906 25.18-.045 35.288.076q26.825.204 53.648-.039l70.559.127c17.091-.014 35.486-.473 52.403.893a217.1 217.1 0 0 1 112.325 42.401 219.36 219.36 0 0 1 81.982 125.807c3.33 14.585 3.444 24.32 5.482 38.424-16.517.601-37.925-.667-53.144.446-3.597-48.87-18.29-83.201-55.49-116.563-54.743-49.094-145.081-62.502-197.973-2.677-29.422 33.279-28.617 69.356-27.843 110.721.294 15.688-.666 32.231.491 47.942l-48.697.224c.857-16.693.257-34.628.191-51.386-.116-18.583-.079-34.238 1.04-52.75-11.12-1.388-31.932.546-42.383 3.605-23.09 6.761-33.542 19.046-44.691 38.982-15.743.339-38.1-1.024-53.203 1.199 10.511-51.341 59.92-91.328 111.73-93.413 14.105-.568 28.326-.404 42.444-.364 6.937-16.94 18.39-30.847 30.398-44.354-17.968-.266-36.016.06-53.991-.105-9.266-.085-18.56-.043-27.791.844a170.22 170.22 0 0 0-97.482 43.194c-23.824 21.584-42.025 49.806-49.786 81.211-2.899 11.729-3.748 21.999-4.353 33.982-16.768.386-34.337-.274-51.404.034-.302-48.838 20.248-96.724 52.147-133.202a219.52 219.52 0 0 1 116.264-69.942c14.934-3.305 26.708-4.308 41.839-5.317Z" style="stroke:url(#b);fill:url(#c)"/>
  <path d="m201.434 617.99 51.429-.121c1.975 42.116 16.576 76.812 45.461 107.321 30.661 32.384 71.657 50.68 116.206 51.615 15.426.324 30.801.056 46.23.019l66.561.107 55.104-.134c12.135-.038 26.501.484 38.413-.62a164.94 164.94 0 0 0 97.798-44.722c31.416-29.687 51.708-69.899 52.962-113.45 16.368-.015 34.296-.264 50.582.4-.016 14.185-2.369 29.607-6.008 43.296-1.548 7.114-4.697 16.055-7.24 22.871-11.784 31.586-29.41 58.2-53.371 81.776-39.687 39.051-89.274 58.827-144.593 60.851-11.297.413-20.962.071-32.189-.102a3282 3282 0 0 0-32.909-.069l-117.897.349c-13.016-.057-29.286-.724-42.005-2.611a217.8 217.8 0 0 1-122.56-62.906c-36.962-37.366-62.29-90.812-61.974-143.87Z" style="stroke:url(#d);fill:url(#e)"/>
  <path d="m440.984 579.489 48.136.396c-.275 34.553-.157 69.109.355 103.659 13.479-.376 30.416.297 44.528.188-.385-11.608-.068-25.081-.078-36.807q-.1-33.48.169-66.958c15.12-.431 34.221-.447 49.425-.418l.183 67.596c.06 11.573.523 25.042-.04 36.518 37.506 1.435 67.107-8.262 84.763-43.771 6.396-.597 18.365-.169 25.324-.174 9.725-.038 19.44-.635 29.096-1.787-7.457 32.516-24.25 54.232-51.091 73.36-36.232 24.117-66.002 21.345-107.123 21.383l-74.969-.067-47.519-.083c-14.033-.012-26.794.464-40.755-1.682a120.4 120.4 0 0 1-47.489-17.821c-28.018-18.117-45.881-43.37-52.915-75.864 17.159 3.49 36.379 1.759 53.669 2.52 10.409 23.296 32.404 41.192 58.447 43.506 9.038.804 18.669.359 27.835.662z" style="stroke:url(#f);fill:url(#g)"/>
  <path d="m590.467 391.124 99.494-.053c36.982-.181 69.577 10.606 95.768 36.865 48.732 48.858 50.303 120.031.299 168.598-43.586 42.331-88.749 36.174-143.429 35.585l-51.966-.063c-.209-15.387-.094-34.787.38-50.173l66.834.067c17.151.055 41.433 1.231 57.416-2.667a68.4 68.4 0 0 0 30.443-16.175 68.05 68.05 0 0 0 22.209-47.076 71.84 71.84 0 0 0-19.236-51.315 70.3 70.3 0 0 0-32.98-19.84c-16.61-4.418-38.831-1.652-55.949-2.173-22.944-.699-46.37.628-69.259-.139.333-13.103 1.003-39.002-.024-51.441Z" style="stroke:url(#h);fill:url(#i)"/>
  <path d="m330.143 391.23 69.529-.398c9.298-.004 25.673.9 33.926.305.26 15.687-.771 36.517.278 51.347l-64.026-.005c-19.504.011-46.582-1.343-64.725 3.576a66.5 66.5 0 0 0-29.628 16.906c-13.701 13.23-20.535 29.832-20.683 48.799a66.85 66.85 0 0 0 20.004 48.256 73.55 73.55 0 0 0 35.885 19.781c16.392 3.852 39.482 2.228 56.613 2.147l65.64.037c1.364 1.875.859 44.417.847 50.495a64 64 0 0 1-3.233.245c-5.588.283-13.278-.037-19.066-.067l-35.929-.035c-51.435.081-91.453 4.109-133.848-33.685-23.719-21.146-38.479-49.769-39.857-81.825a114.57 114.57 0 0 1 30.493-83.228c28.508-30.849 56.79-41.14 97.78-42.651Z" style="stroke:url(#j);fill:url(#k)"/>
  <path d="M326.575 487.249c21.014-.613 45.143-.071 66.354-.03l118.474.085 120.58-.018c22.944 0 46.44-.744 69.329.656 4.538.278 7.44 1.43 11.167 4.108a25.48 25.48 0 0 1 10.399 17.099 24.6 24.6 0 0 1-5.266 18.824c-5.599 6.881-12.323 8.366-20.496 9.324-2.854.357-11.617.218-14.892.234q-17.017.095-34.033-.13l-92.456-.261-148.41-.03q-27.66.16-55.319-.007c-11.122-.041-22.265.616-33.343-.835-2.794-.497-6.042-2.574-8.236-4.185-11.083-8.142-12.76-25.747-3.751-36.039 5.552-6.342 12.054-8.01 19.899-8.795Z" style="stroke:url(#l);fill:url(#m)"/>
  <path d="M598.359 291.693c1.024-.214 6.459-.363 7.777-.352 21.006.169 44.168 7.576 61.737 18.817 29.149 18.648 46.925 42.876 54.594 76.506-2.36-.185-4.708-.505-7.057-.794-15.643-1.929-31.276-1.649-47.027-1.328-2.82-7.579-9.021-16.012-14.74-21.68-14.952-14.817-32.293-21.656-53.313-21.651-7.446.836-15.24 4.913-16.343 13.036-1.55 11.415-.97 23.451-.89 34.986l.416 56.127c-14.472-.842-33.992-.28-48.857-.245q.397-28.771.265-57.545c-.057-11.133-.955-31.423 1.119-41.537a68.16 68.16 0 0 1 13.166-28.26c12.98-16.49 28.846-23.573 49.153-26.08Z" style="stroke:url(#n);fill:url(#o)"/>
</svg>
