<?xml version="1.0" encoding="utf-8"?>
<svg xmlns="http://www.w3.org/2000/svg" style="display:block;filter:none" viewBox="0 0 2048 2048" width="512" height="512" preserveAspectRatio="none" xmlns:bx="https://boxy-svg.com">
  <defs>
    <linearGradient bx:pinned="true" id="color-0">
      <stop style="stop-color: rgb(13, 150, 255);" offset="0"/>
      <stop style="stop-color: rgb(255, 0, 169);" offset="1"/>
    </linearGradient>
    <linearGradient id="color-0-0" href="#color-0" gradientUnits="userSpaceOnUse" x1="1025.471" y1="316.658" x2="1025.471" y2="1706.706" gradientTransform="matrix(0.707107, -0.719927, 0.757384, 0.771113, -380.650888, 980.882375)"/>
    <linearGradient id="color-0-1" href="#color-0" gradientUnits="userSpaceOnUse" x1="1025.027" y1="728.005" x2="1025.027" y2="1263.282" gradientTransform="matrix(0.755979, -0.666463, 0.677464, 0.796573, -243.068987, 831.238834)"/>
  </defs>
  <path d="M871.186 371.074c36.975-14.588 72.983-30.936 110.167-45.57 56.977-22.423 85.457 2.956 134.087 19.03 48.5 18.382 95.87 37.865 143.72 57.728l146.11 59.543c27.61 11.13 101.25 35.591 117.11 60.571 63.93 59.179 52.26 139.661 52.21 218.111l.02 298.233c-.02 90.96-1.68 165.96-37.76 251.41-66.61 171.49-244.79 284.92-397.32 371.64-72.45 43.46-114.18 64.85-193.559 20.29C717.11 1553.6 490.126 1415.28 476.32 1120.9c-.954-20.35-.371-41.72-.297-62.16-1.201-24.02-.011-59.462 0-84.41-.841-5.087-.073-30.807-.04-37.357l.031-240.558c-.047-72.756-2.811-158.943 80.535-195.179 103.033-44.796 210.176-89.112 314.637-130.162zm268.444 112.658c-101.75-35.689-85.73-61.18-192.093-16.226l-90.191 38.043c-32.002 13.186-64.686 27.981-96.444 40.658-31.768 12.682-149.522 49.312-159.83 80.819-6.813 20.822-3.773 101.976-3.758 128.401l.059 208.697c1.783 54.606-3.071 114.116.961 167.866 17.199 229.27 209.996 345.89 393.49 438.29 13.956 6.87 31.716 15.31 47.156 7.69 151.38-74.71 305.81-164.25 380.58-323.31 34.23-72.82 32.65-123.53 32.66-200.62l.01-313.697c0-31.372.32-62.998-.38-94.232-1.07-47.872-52.36-53.506-87.36-69.994-72.65-34.224-151.83-59.29-224.86-92.385z" style="paint-order: stroke; stroke-width: 0; stroke: rgb(10, 0, 255); fill: url(&quot;#color-0-0&quot;);" transform="matrix(1.50004 0 0 1.47333 -514.25 -466.541)"/>
  <path d="m933.999 894.423.228 1.253c9.49 49.25 60.066 40.678 97.323 40.828 13.9-1.108 31.52 2.352 45.08-1.312 60.22-16.277 34.04-106.807 39.06-156.941 6.28-62.879 100.02-65.88 116.29-6.376 5.69 22.007 3.02 69.808 3.02 95.139l.01 282.436c0 20.4.5 42.37-.36 61.99-1.98 45.41-57.24 64.27-95.02 37.74-26.5-18.61-23.2-46.05-23.22-73.74l.16-65.34c.12-67.89-19.04-72.12-80.64-72.97-83.824-1.16-104.323.37-104.1 86.87l.134 59.99c.084 111.43-106.177 88.39-115.341 34.3-2.661-14.52-1.771-29.48-1.772-44.14l-.05-175.924c-.006-18.003-.631-40.298.044-57.9-.882-6.612-.092-20.197-.082-27.466l-.186-116.18c-2.669-88.924 119.792-94.374 117.431.591-.775 31.168-.998 67.285 1.991 97.152" style="fill-rule: nonzero; paint-order: fill; fill: url(&quot;#color-0-1&quot;);" transform="matrix(1.50004 0 0 1.47333 -514.25 -466.541)"/>
</svg>